<?xml version="1.0" encoding="UTF-8"?>
<svg id="Layer_2" data-name="Layer 2" xmlns="http://www.w3.org/2000/svg" viewBox="0 0 269.47 308.92">
  <defs>
    <style>
      .cls-1 {
        fill: #ad8cc5;
      }

      .cls-2 {
        fill: #fff;
      }

      .cls-3 {
        fill: #60279a;
      }
    </style>
  </defs>
  <g id="Layer_2-2" data-name="Layer 2">
    <g>
      <path class="cls-3" d="M175.1,171.64h-.65l-79.51-.03c-18.07-.02-49.41-1.07-73.14-11.16-4.54-1.93-8.58-4.93-11.66-8.79-24.77-30.98,15.06-87.45,59.53-121.32,5.84-4.44,11.76-8.5,17.62-12.06h0C104.73,7.7,121.66,1.53,134.54,2.62c20.91,1.59,39.99,9.62,56.92,21.05h0c9.4,6.34,18.15,13.74,26.17,21.67,13.41,13.25,24.8,27.98,33.9,41.74,46.01,74.67-19.88,84.49-76.43,84.56Z"/>
      <path d="M134.54,170.67c-28.43,0-57.91-.22-78.46-2.79-19.51-2.44-29.82-6.94-29.82-13.02s9.53-17.08,30.83-26.92c13.04-6.03,40.46-16.14,77.55-16.14s64.44,10.11,77.44,16.14c21.23,9.83,30.73,20.61,30.73,26.92s-10.31,10.58-29.82,13.02c-20.55,2.57-50.03,2.79-78.46,2.79Z"/>
      <path d="M253.66,85.76l-.05-.06c-6.45-9.75-15.21-21.72-26.05-33.59C204.96,27.36,173.32,3.06,134.75.13c-16.78-1.42-40.92,8.75-66.21,27.94-24.48,18.56-46.15,42.86-57.97,64.98-13.23,24.77-14.05,45.57-2.38,60.17,3.29,4.12,7.66,7.41,12.64,9.53,17.88,7.6,42.13,11.32,74.11,11.36l79.51.03h.66c21.14-.03,47.54-1.28,67.03-9.08,10.19-4.08,18.5-9.94,23.19-18.35,8.16-14.63,4.23-35.14-11.67-60.94ZM227.42,164.4c-13.38,3.16-30.5,4.71-52.32,4.73l-80.16-.03c-31.3-.04-51.42-6.9-68.68-14.24-4.21-1.79-11.17-7.2-13.57-10.95-9.45-14.72-6.23-32.58,2.29-48.52,11.49-21.52,32.65-45.21,56.58-63.35C95.52,13.88,118.99,3.81,134.35,5.12c41.45,3.15,74.81,32.26,97.03,58.96,4.41,8.75,9.33,20.76,9.54,31.04.38,18.77-11.51,40.55-11.51,40.55l10.74,24.8c-3.8,1.51-8.05,2.82-12.73,3.93Z"/>
      <path class="cls-1" d="M133.93,305.36c-2.34,0-14.63-.3-27.05-6.3-13.68-6.6-17.04-16.83-18.46-33.4-.32-3.74-.1-7.91.66-12.76v-.06s.03-.16.03-.16c1.58-11.92,4.93-23.73,8.17-35.16,2.68-9.47,5.22-18.41,6.39-26.34l.04-.25v-.02c2.07-14.6-1.12-32.9-2.36-39.11,4-3.01,15.86-10.64,33.29-10.64s29.29,7.63,33.29,10.64c-1.13,5.66-3.88,21.38-2.79,35.18v.16c.12,1.35.27,2.7.47,4.02,1.17,7.95,3.71,16.9,6.39,26.38,3.27,11.54,6.66,23.48,8.22,35.51.22,1.71.37,3.45.44,5.19l-.02.05.05.87.02.62.02.05c.1,2.05.08,4.01-.08,5.82-1.4,16.26-4.61,26.33-17.54,32.94-.32.17-.6.31-.9.45-12.43,6-24.67,6.31-27,6.31-.15,0-.51,0-.51,0h-.09s-.06,0-.06,0c-.08,0-.16,0-.24,0-.09,0-.21,0-.37,0Z"/>
      <path d="M134.65,108.57c-61.59,0-111.63,28.4-111.63,46.31,0,14.47,32.63,18,77.67,18.82-.13-2.23-.32-4.43-.54-6.51-16.32-.31-31.57-1-43.66-2.51-9.88-1.24-17.27-2.97-21.97-5.15-3.32-1.54-5-3.1-5-4.64,0-.91.48-4.32,6.67-9.99,5.3-4.85,13-9.69,22.27-13.97,10.14-4.68,21.95-8.58,34.16-11.27,13.75-3.02,27.89-4.56,42.03-4.56s28.27,1.54,42,4.56c12.18,2.69,23.97,6.59,34.08,11.27,9.24,4.28,16.92,9.11,22.2,13.96,6.17,5.67,6.65,9.09,6.65,10,0,1.53-1.68,3.09-5.01,4.64-4.69,2.18-12.08,3.91-21.96,5.15-12.03,1.5-27.2,2.19-43.45,2.5-.22,2.08-.41,4.27-.54,6.51,44.93-.82,77.46-4.36,77.46-18.81,0-17.9-49.83-46.31-111.42-46.31Z"/>
      <path d="M184.19,258.98c-3.97-36.48-23.71-77.59-12.39-108.54-13.77-15.91-60.25-16.25-74.32,0,18.67,41.97-42.07,125.49,7.87,151.77,36.09,16.36,83.01,3.12,78.84-43.23ZM100.65,218.48c7.49-19.98,8.94-48.21,4.56-65.12,12.1-10.91,46.75-10.98,58.87,0-1.24,11.83-2.73,16.27-3.93,25.38-1.93,14.63-1.48,29.48,1.21,44,5.08,27.47,10.44,71.08-29.1,74.18-6.38.2-7.15,0-7.15,0-2.93-.04-11.61-14.09-11.06-15.83v12.42c-29.21-8.04-20.96-52.61-13.41-75.05Z"/>
      <g>
        <path class="cls-2" d="M174.83,126.44l-7.14,19.78.43-21.11c2.34.43,4.58.87,6.71,1.33Z"/>
        <path class="cls-2" d="M188.76,129.79l-17.12,16.43,9.75-18.3c2.66.63,5.12,1.26,7.37,1.87Z"/>
        <path class="cls-2" d="M207.84,136.07l-31.81,10.15,22.36-13.55c3.46,1.12,6.6,2.27,9.45,3.4Z"/>
        <path class="cls-2" d="M229.41,150.91l-48.36-1.48,42.15-5.5c3.77,2.64,5.79,5.04,6.21,6.98Z"/>
        <path class="cls-2" d="M215.75,158.77c-3.91.79-8.65,1.47-14.16,2.03l-14.25-5.89,28.41,3.86Z"/>
        <path class="cls-2" d="M94.25,126.44l7.14,19.78-.43-21.11c-2.34.43-4.58.87-6.71,1.33Z"/>
        <path class="cls-2" d="M80.32,129.79l17.12,16.43-9.75-18.3c-2.66.63-5.12,1.26-7.37,1.87Z"/>
        <path class="cls-2" d="M61.24,136.07l31.81,10.15-22.36-13.55c-3.46,1.12-6.6,2.27-9.45,3.4Z"/>
        <path class="cls-2" d="M39.67,150.91l48.36-1.48-42.15-5.5c-3.77,2.64-5.79,5.04-6.21,6.98Z"/>
        <path class="cls-2" d="M53.33,158.77c3.91.79,8.65,1.47,14.16,2.03l14.25-5.89-28.41,3.86Z"/>
      </g>
      <path class="cls-2" d="M75.66,94.41c-7.87,13.62-23.4,19.38-34.69,12.86-11.29-6.52-11.59-18.69-3.72-32.32,7.87-13.62,22.15-18.65,33.44-12.13,11.29,6.52,12.84,17.96,4.97,31.58Z"/>
      <circle class="cls-2" cx="135.74" cy="65.51" r="20.59"/>
      <path class="cls-2" d="M233.26,106.19c-6.02,9.27-20.6,9.08-30.14.5-9.54-8.58-11.63-20.03-4.24-28.25,7.39-8.22,18.2-8.24,27.74.34,9.54,8.58,12.25,18.76,6.64,27.4Z"/>
      <ellipse class="cls-2" cx="92.26" cy="35.05" rx="8.25" ry="5.79" transform="translate(-5.16 50.82) rotate(-30)"/>
      <ellipse class="cls-2" cx="143.48" cy="19.05" rx="18.81" ry="11.4"/>
      <path class="cls-2" d="M82.73,30.89c-5.31,4.01-11.07,5.35-12.85,2.99-.08-.11-.16-.23-.22-.35.63-.49,1.27-.98,1.91-1.47,6.03-4.57,12.03-8.63,17.88-12.13,1.01,2.55-1.8,7.25-6.71,10.96Z"/>
      <path class="cls-2" d="M216.79,48.05c-.26.52-.58,1.01-.97,1.47-4.18,4.98-13.82,3.78-21.53-2.68-7.7-6.47-10.55-15.76-6.37-20.74.32-.39.69-.74,1.08-1.05,10.22,6.78,19.52,14.74,27.79,23.01Z"/>
    </g>
  </g>
</svg>