<?xml version="1.0" encoding="UTF-8"?>
<svg id="Layer_2" xmlns="http://www.w3.org/2000/svg" version="1.1" viewBox="0 0 569.43 1015.81">
  <!-- Generator: Adobe Illustrator 29.8.1, SVG Export Plug-In . SVG Version: 2.1.1 Build 2)  -->
  <defs>
    <style>
      .st0 {
        fill: none;
      }

      .st1 {
        fill: #126005;
      }

      .st2 {
        fill: #969696;
      }

      .st3 {
        fill: #ad8cc5;
      }

      .st4 {
        fill: #fff;
      }

      .st5 {
        fill: #672daa;
      }

      .st6 {
        fill: #ffc200;
      }
    </style>
  </defs>
  <g id="Layer_1-2">
    <g>
      <g>
        <path class="st3" d="M102.27,387.29l-39.47,58.02-14.98-4.27s10.22-21.17,0-37.34c-6.32-9.99-8.74-10.54-12.35-14.04-2.23-2.18-4.93-5.47-9.29-12.83-5.86-9.88-6.14-16.38-5.04-20.37,1.06-3.79,3.37-5.31,3.37-5.31,0,0,.75,1.88,2.14,4.72,3.44,7.02,10.8,19.93,20.44,25.01,1.56.82,3.27,1.64,5.08,2.46,13.59,6.11,32.52,11.6,33.18,11.79-.76-.35-19.3-9.23-26.56-21.27-.67-1.12-1.25-2.27-1.71-3.44-1.37-3.49-2.52-9.88-3.49-17.5-.36-2.84-.7-5.85-1-8.94-2.19-22.04-3.12-48.46-3.12-48.46l4.04-5.95,1.18,5.95c0,1.36.43,31.42,10.96,47.63.52.8,1.07,1.57,1.64,2.3,12.12,15.46,32.34,13.56,32.34,13.56l2.62,28.29h.02Z"/>
        <path d="M65.68,343.14c-4.83,1.09-9.39,1.52-13.07.83-2.19-22.04-3.12-48.46-3.12-48.46l4.04-5.95,1.18,5.95c0,1.36.43,31.42,10.96,47.63h0Z"/>
        <path d="M64.48,449.94l-22.31-6.37,2.06-4.27c.09-.19,9.11-19.41.22-33.47-4.47-7.07-6.71-8.95-9.08-10.94-3.06-2.57-6.22-5.23-12.62-16.03-13.2-22.28-.95-30.7-.43-31.04l4.08-2.69,1.81,4.54c.08.21,8.67,21.32,20.74,27.67,3.32,1.75,7.38,3.51,11.57,5.16-3.06-3.21-5.66-6.8-7.16-10.65-5.65-14.49-7.79-73.7-7.88-76.21l-.05-1.3,10.12-14.88,3.13,15.65v.4c0,.32.32,32.9,11.75,47.47,10.66,13.59,28.65,12.06,28.83,12.05l3.98-.37,3.12,33.7-41.9,61.59h.02ZM53.16,438.42l7.96,2.27,37.04-54.45-2.14-23.19c-7.05-.23-21.8-2.34-31.84-15.14-4.04-5.15-6.87-11.99-8.85-19.01,1.25,16.8,3.08,33.91,5.48,40.07,4,10.26,20.32,19.77,26.28,22.57l-2.8,7.44c-1.03-.3-25.28-7.33-39.03-14.57-9.36-4.92-16.55-16.07-20.64-23.77.04,3.17,1.2,7.75,5,14.16,5.71,9.63,8.23,11.75,10.89,13.99,2.73,2.29,5.55,4.67,10.69,12.78,8.45,13.36,4.62,29.29,1.97,36.84h-.01Z"/>
        <path class="st5" d="M86.45,319.94c-1.96,5.71-8.04,7.91-14.97,8.42-2.73.21-5.61.14-8.41-.07-3.71-.27-7.31-.81-10.31-1.34-2.67-.47-4.88-.95-6.27-1.23-3.38-.7-30.95-6.22-27.37-19.6,1.05-3.91,3.52-8.24,6.84-12.52,7.1-9.18,18.05-18.21,27.07-22.73,4.42-2.21,8.39-3.35,11.2-2.89,4.97.8,12.09,10.17,17.13,21.3,4.84,10.64,7.77,22.88,5.09,30.67h0Z"/>
        <path class="st4" d="M61.43,286.35c0,10.2-8.27,18.47-18.47,18.47-7.62,0-14.17-4.63-17-11.22,7.1-9.18,18.05-18.21,27.07-22.73,5.06,3.29,8.4,9,8.4,15.48Z"/>
        <path class="st4" d="M72.26,324.49c0,1.38-.28,2.69-.79,3.87-2.73.21-5.61.14-8.41-.07-3.71-.27-7.31-.81-10.31-1.34-.21-.79-.31-1.61-.31-2.46,0-5.48,4.44-9.91,9.91-9.91s9.9,4.43,9.9,9.91h.01Z"/>
        <path d="M52.19,383.34c-2.89,2.44-6.69,4.36-11.68,5.45-1.7.36-3.37.66-5.04.88-2.23-2.18-4.93-5.47-9.29-12.83-5.86-9.88-6.14-16.38-5.04-20.37l5.51-.59c3.44,7.02,10.8,19.93,20.44,25.01,1.56.82,3.27,1.64,5.08,2.46h.02Z"/>
        <path d="M67.74,332.45c-8.37,0-16.79-1.74-21.13-2.64l-.91-.19c-8.57-1.74-23.64-5.92-28.92-14.45-1.92-3.1-2.44-6.59-1.51-10.08,4.71-17.58,35.77-43.29,49.59-41.06h0c6.09.98,11.85,8.67,15.61,14.95,7.67,12.8,13.66,30.84,9.74,42.26-3.03,8.84-12.72,11.21-22.48,11.21h.01ZM62.75,271.84c-9.31,0-35.76,20.3-39.78,35.31-.37,1.39-.19,2.56.58,3.82,2.63,4.24,11.7,8.39,23.68,10.83l.99.2c25.7,5.31,32.92,1.11,34.45-3.35,2.91-8.47-2.49-24.65-9.04-35.57-4.65-7.76-8.56-10.93-10.04-11.17h0c-.26-.04-.54-.06-.84-.06h0Z"/>
        <path class="st5" d="M34.79,380.76c-1.21.63-8.73,5.32-15.96,7.11-5.49,1.37-10.82,1.05-13.08-4.01-6.04-13.55,4.96-48.25,12.34-51.1,2.31-.89,6.81,1.11,11.66,4.72,3.32,2.48,6.8,5.72,9.86,9.31,1.2,1.41,2.34,2.87,3.36,4.36,3.05,4.4,5.22,9.06,5.59,13.33,1.11,12.65-11.62,15.19-13.76,16.28h-.01Z"/>
        <path class="st4" d="M42.96,351.15c-.25,7.04-6.05,12.66-13.15,12.66s-13.16-5.89-13.16-13.17,5.86-13.13,13.09-13.16c3.32,2.48,6.8,5.72,9.86,9.31,1.2,1.41,2.34,2.87,3.36,4.36h0Z"/>
        <path d="M13.7,392.53c-1.61,0-3.17-.21-4.62-.68-3.17-1.04-5.58-3.24-6.98-6.37-5.02-11.26-.06-31.76,4.5-42.79,3.18-7.71,6.56-12.3,10.04-13.65h0c3.08-1.19,7.08-.21,12.22,3,9.16,5.71,22.56,19.45,23.66,32.09,1.22,13.98-10.98,18.39-14.99,19.83-.41.15-.75.26-.97.36-.12.06-.38.21-.73.42-3.67,2.09-13.65,7.78-22.13,7.78h0ZM19.43,336.53c-4.44,2.67-15.47,33.52-10.04,45.7.48,1.09,1.13,1.7,2.17,2.04,2.13.7,7.62.79,20.32-6.45.5-.29.87-.5,1.08-.6.52-.26,1.11-.48,1.86-.75,5.05-1.82,10.38-4.38,9.75-11.64-.64-7.37-8.33-16.86-15.21-22.56-5.27-4.37-8.86-5.72-9.94-5.73h0Z"/>
        <path d="M86.45,319.94c-2.73,7.96-13.49,9.09-23.38,8.35l-1.94-1.17s14.21-7.36,16.73-12.21c2.52-4.84,2.68-16.86,0-26.38l3.5.74c4.84,10.64,7.77,22.88,5.09,30.67Z"/>
        <path d="M34.79,380.76c-1.21.63-8.73,5.32-15.96,7.11-1.26-1.25-2.18-2.18-2.18-2.18,0,0,18.15-10.47,22.62-16.29,4.25-5.55,1.67-13.66.21-21.53-.07-.39-.14-.77-.21-1.15l.33.07c4.74,5.56,8.45,11.98,8.96,17.69,1.11,12.65-11.62,15.19-13.76,16.28h-.01Z"/>
      </g>
      <g>
        <path class="st3" d="M524.54,399.4c-.41,2.55-.98,5.05-1.71,7.44-4.96,16.17-16.98,18.59-23.72,18.59-1.12,0-2.01-.07-2.55-.13-2.84-2-6.73-4.75-8.54-6.04-.67-3.06-2.19-11.35-3.61-19.27,3.21,1.36,7.39,2.6,11.88,2.6,3.67,0,7.05-.81,10.11-2.42,1.28-.67,2.49-1.47,3.65-2.43,1.63-1.31,3.15-2.91,4.56-4.77,5.18-6.9,8.26-15.06,10.07-22.56,1,8.91,1.43,19.39-.15,28.98h.01Z"/>
        <path d="M522.31,387.1c-.11,6.33-.82,12.68-2.55,18.33-4.04,13.2-13.45,15.98-20.63,15.98-.61,0-1.14-.02-1.55-.05-2.47-1.74-4.98-3.51-6.69-4.72-.49-2.46-1.23-6.42-2.06-10.98,2.31.58,4.85.97,7.49.97,8.18,0,15.35-3.78,20.73-10.92,2.05-2.72,3.79-5.62,5.27-8.6M523.97,347.76s.92,25.65-11.76,42.49c-4.78,6.35-10.56,8.33-15.9,8.33-8.82,0-16.44-5.39-16.44-5.39,0,0,4.96,28.39,5.44,28.78s10.23,7.24,10.23,7.24c0,0,1.39.25,3.59.25,6.71,0,21.01-2.33,26.79-21.2,7.67-25.06-1.94-60.5-1.94-60.5h-.01Z"/>
        <path d="M524.54,399.4c-2.15.05-4.27-.02-6.27-.24-3.33-.37-6.02-.86-8.2-1.4,1.63-1.31,3.15-2.91,4.56-4.77,5.18-6.9,8.26-15.06,10.07-22.56,1,8.91,1.43,19.39-.15,28.98h0Z"/>
        <path class="st5" d="M557.43,372.7c-4.67,3.07-10.57,5.31-16.05,6.9-8.12,2.36-15.33,3.27-16.18,3.31-2.11.09-41.19,5.29-44.28-12.86-1-5.83-.1-12.26,2.05-18.65,4.5-13.35,14.51-26.54,24.26-33.88,3.34-2.52,6.66-4.35,9.71-5.26,14.03-4.2,47.09,23.62,49.15,46,.56,6.12-3.2,10.84-8.66,14.42v.02Z"/>
        <path class="st4" d="M519.59,339.8c0,13.22-8.74,23.94-19.55,23.94-7.35,0-13.76-4.98-17.09-12.33,4.5-13.35,14.51-26.54,24.26-33.88,7.25,3.5,12.37,12.16,12.37,22.27h0Z"/>
        <path class="st4" d="M559.12,364.85c0,2.86-.61,5.54-1.69,7.86-4.67,3.07-10.57,5.31-16.05,6.9-4.8-2.31-8.19-8.05-8.19-14.76,0-8.77,5.8-15.87,12.96-15.87s12.97,7.11,12.97,15.87h0Z"/>
        <path d="M569.36,357.83c-1.22-13.24-11.5-26.8-21.28-35.66-.56-.51-1.13-1-1.69-1.48-9.7-8.28-19.19-12.86-26.33-12.86-1.39,0-2.7.17-3.9.53-17.57,5.27-42.73,37.49-38.46,62.53,2.25,13.22,17.67,16.81,33.77,16.81,4.37,0,8.78-.26,13-.68.42-.03.71-.07.85-.08.24-.01,21.27-2.27,34.14-11.02,2.69-1.83,5.03-3.93,6.73-6.37,2.49-3.54,3.55-7.49,3.17-11.71h0ZM561.23,364.25c-2.23,3.2-6.23,5.81-10.79,7.88-10.18,4.64-23.15,6.64-25.37,6.76-.18.01-.56.05-1.13.09-23.15,2.24-38.41-1.5-39.82-9.74-1.5-8.86,2.08-20.53,9.83-32.04,3.57-5.3,7.68-10.01,11.83-13.67,4.13-3.66,8.28-6.27,11.93-7.35.7-.22,1.5-.32,2.36-.32,5.59,0,14.21,4.3,22.54,11.42,2.4,2.06,4.65,4.23,6.72,6.46,7.72,8.36,12.8,17.6,13.49,24.97.19,1.96-.32,3.7-1.59,5.52v.02Z"/>
        <path d="M566.19,369.54c-1.71,2.44-4.05,4.54-6.73,6.37l-18.15,3.71,4.98-5.23,3.64-2.58c2.98-2.11,5.03-5.78,5.49-9.96.27-2.42.16-4.8-.04-6.53-.74-6.1-.89-10.24-6.05-21.58-1.21-2.67-2.4-5.31-3.84-7.58l2.58-4c9.79,8.86,20.06,22.42,21.28,35.66.39,4.22-.68,8.17-3.17,11.71h0Z"/>
      </g>
      <g>
        <path class="st5" d="M351.66,51.03c-2.83,14.89-36.2,8.4-37.9,7.92-1.7-.47-33.85-6.73-32.29-21.23.79-7.39,5.66-14.64,12.08-20.55,4.02-3.71,8.66-6.89,13.28-9.24,5.74-2.94,11.47-4.6,15.98-4.42,5.72.23,13.24,7.01,19.23,15.94,4.84,7.23,8.67,15.88,9.7,23.58h0c.39,2.84.39,5.54-.08,8h0Z"/>
        <path class="st4" d="M312.05,16.27c0,5.12-4.15,9.28-9.28,9.28-4.82,0-8.78-3.68-9.22-8.38,4.02-3.71,8.66-6.89,13.28-9.24,3.09,1.5,5.22,4.68,5.22,8.34Z"/>
        <path class="st4" d="M351.74,43.03h0c-2.71,3.58-6.99,5.88-11.81,5.88-8.17,0-14.8-6.63-14.8-14.81s6.63-14.8,14.8-14.8c.72,0,1.42.05,2.11.15,4.84,7.23,8.67,15.88,9.7,23.58Z"/>
        <path d="M347.39,56.93c-10.01,6.03-31.76,1.78-33.12,1.39-1.45-.4-24.97-5-30.96-15.31,5.31-1.74,19.52-8.06,35.73-3.93,18.27,4.66,26.36,14.93,28.35,17.85h0Z"/>
        <path d="M342.57,25.31c2.3,2.68,2.17,17.36,1.28,21.45s-8.81,6.26-8.81,6.26l9.53,8.96,9.23-6.87-3.5-24-7.73-5.79h0Z"/>
        <path d="M330.98,64.27c-9.42,0-18.03-1.91-18.17-1.95-.1-.03-.32-.08-.64-.15-23.53-5.41-35.35-14-34.19-24.83C280.14,17.24,307.64-.61,322.95.02h0c7.55.31,14.92,8.22,18.65,12.91,8.37,10.54,15.79,26.62,13.49,38.76-.69,3.65-2.84,6.68-6.23,8.77-4.74,2.93-11.5,3.81-17.89,3.81h.01ZM322.12,7c-12.15,0-35.5,15.55-37.17,31.1-.7,6.5,10.07,12.95,28.8,17.26.49.11.82.19.97.23,2.53.66,22.41,4.02,30.56-1.13,1.69-1.07,2.63-2.36,2.95-4.07,1.8-9.48-4.72-23.83-12.09-33.11-4.85-6.1-10.13-10.13-13.45-10.27-.18,0-.37-.01-.55-.01h-.02Z"/>
        <g>
          <path class="st3" d="M312.99,111.44c-9.46-2.02-19.07-4.17-22.98-5.19-.08-2.7.04-7.98.25-12.84,2.61-2.49,8.84-9.2,13.1-19.99,3.08-7.81,6.54-18.79,8.74-26.04,1.31.18,2.58.45,3.82.81,1.49.42,2.93.92,4.32,1.48,1.1,11.64.34,27.71-1.86,38.35-2.64,12.75-4.43,19.88-5.39,23.42Z"/>
          <path d="M314.52,51.44c.15.04.3.08.45.13.66.19,1.32.39,1.96.61.8,11.09.03,25.43-1.99,35.13-1.99,9.61-3.49,15.98-4.5,20.01-6.59-1.42-12.96-2.84-16.96-3.8.02-2.39.1-5.54.21-8.6,3.21-3.29,8.92-10.09,12.92-20.21,2.72-6.89,5.71-16.16,7.9-23.27M309.57,43.64c-2.25,7.56-6.1,19.99-9.46,28.5-5.13,12.97-13.28,19.66-13.28,19.66,0,0-.76,16.34,0,17.1.77.77,28.61,6.64,28.61,6.64,0,0,2.03-5.87,6.37-26.81,2.48-11.95,3.11-29.59,1.7-41.46-1.99-.92-4.19-1.75-6.62-2.44-2.51-.72-4.97-1.08-7.32-1.19h0Z"/>
        </g>
      </g>
      <g>
        <rect class="st2" x="251.12" y="467.92" width="45.07" height="547.89"/>
        <polygon points="296.19 467.92 296.19 546.88 251.12 496.63 251.12 467.92 296.19 467.92"/>
        <polygon points="296.19 623.55 296.19 726.04 251.12 675.79 251.12 573.3 296.19 623.55"/>
      </g>
      <path d="M286.19,477.92v527.89h-25.07V477.92h25.07M296.19,467.92h-45.07v547.89h45.07V467.92h0Z"/>
      <g>
        <path class="st6" d="M294.13,94.8l212.84,368.65c9.1,15.76-2.27,35.46-20.47,35.46H60.82c-18.2,0-29.57-19.7-20.47-35.46L253.19,94.8c9.1-15.76,31.85-15.76,40.94,0Z"/>
        <path d="M273.66,92.98c4.93,0,9.35,2.55,11.81,6.82l212.84,368.65c2.47,4.27,2.47,9.37,0,13.64-2.47,4.27-6.88,6.82-11.81,6.82H60.82c-4.93,0-9.35-2.55-11.81-6.82-2.47-4.27-2.47-9.37,0-13.64L261.85,99.8c2.47-4.27,6.88-6.82,11.81-6.82M273.66,82.98c-7.96,0-15.92,3.94-20.47,11.82L40.35,463.45c-9.1,15.76,2.27,35.46,20.47,35.46h425.68c18.2,0,29.57-19.7,20.47-35.46L294.13,94.8c-4.55-7.88-12.51-11.82-20.47-11.82h0Z"/>
        <g>
          <circle cx="273.66" cy="413.97" r="23.53"/>
          <path d="M303.75,243.9l-11.77,119.19c-.46,4.7-2.67,8.86-5.96,11.83-3.28,2.97-7.62,4.77-12.36,4.77-9.47,0-17.39-7.18-18.32-16.6l-11.76-119.19c-1.76-17.78,12.22-33.2,30.08-33.2s31.84,15.41,30.08,33.2h0Z"/>
        </g>
      </g>
      <path d="M292.77,151.63s9.7-1.79,13.53,7.4c3.83,9.19,1.53,27.32,1.53,27.32,0,0,9.96,1.02,13.53,8.68,3.57,7.66-1.79,15.06-1.02,20.17.77,5.11,10.72,14.55,18.64,10.47s9.96-17.11,9.96-17.11c0,0-27.57-62.3-28.09-62.3s-13.02-6.38-13.02-6.38l-13.28,1.28-1.79,10.47h.01Z"/>
      <g>
        <g>
          <path class="st1" d="M486.07,511.5c-7.51,0-13.77-1.05-24.13-2.79-1.74-.29-3.6-.6-5.61-.93-5.13-.84-11.46-1.85-19.46-2.97-6.05-.85-11.76-1.65-11.55-6.06.19-3.89,4.81-4.79,12.39-5.81,5-.67,11.94-1.33,20.62-1.96,9.76-.71,19.6-1.22,25.16-1.49-1.31-2.47-4-5.67-9.43-7.73-.53-.2-1-.52-1.37-.94-.27-.3-6.53-7.53-4.28-22.76.8-5.43,1.54-9.12,2.67-11.34l-9.41-23.65c-.98-1.18-4.83-5.44-9.48-5.44-.17,0-.33,0-.5.02-.19.01-.38.02-.57.02h0c-7.34,0-8.57-8.13-9.76-15.99-.69-4.58-1.48-9.76-3.31-13.91-5.26-11.85-10.77-54.48-11-56.29-.19-1.46.56-2.89,1.88-3.56.5-.26,1.05-.38,1.59-.38.87,0,1.73.32,2.39.95.43.4,10.56,9.94,18.33,20.83,7.31,10.23,16.14,31.73,17.57,35.28l8.76,11.19v-9.42c0-1.77,1.32-3.26,3.07-3.47.15-.02.29-.03.43-.03,1.58,0,2.99,1.07,3.39,2.64l4.15,16.43.35-1.1c.47-1.47,1.83-2.44,3.33-2.44.18,0,.36.01.54.04,1.7.27,2.96,1.73,2.96,3.46v15.16c3.19.1,7.49.95,11.1,4.2,2.39,2.16,6.28,6.17,10.04,10.98.06.07.12.15.18.23.59.75,1.18,1.53,1.77,2.32.82,1.15,1.54,2.18,2.21,3.19,4.8,7.28,7.45,13.95,7.89,19.83.46,6.13-.3,17.07-3.92,27.71-.15.47-.33.97-.52,1.47-1.84,5.08-4.2,9.48-7,13.05-3.99,5.12-8.85,8.45-14.45,9.89-.47.13-1,.26-1.55.37-.59.13-1.21.21-1.67.27-5.54.66-9.8.95-13.81.95v-.02Z"/>
          <path d="M532.47,457.53c-.48-6.49-3.33-13.72-8.46-21.49-.7-1.06-1.43-2.13-2.26-3.28-.02-.02-.03-.04-.05-.06-.68-.93-1.26-1.69-1.81-2.39-.08-.1-.15-.2-.23-.29-3.88-4.97-7.92-9.13-10.41-11.38-3.19-2.87-6.77-4.2-9.95-4.76v-12c0-3.45-2.51-6.39-5.92-6.92-.36-.05-.73-.08-1.08-.08-.62,0-1.22.08-1.79.23l-2.65-10.48c-.8-3.14-3.62-5.29-6.78-5.29-.29,0-.58.02-.87.05-3.28.41-5.79,3.04-6.11,6.26l-2.23-2.85c-1.92-4.72-10.52-25.37-17.78-35.54-7.97-11.16-18.35-20.94-18.79-21.35-1.33-1.24-3.05-1.89-4.79-1.89-1.09,0-2.18.25-3.19.77-2.63,1.34-4.13,4.19-3.75,7.12.59,4.59,5.9,45.16,11.27,57.27,1.64,3.71,2.39,8.65,3.05,13.01.59,3.89,1.15,7.57,2.32,10.63,2.76,7.25,8.02,8.33,10.9,8.33.27,0,.53,0,.81-.03h.26c2.54,0,5.2,2.38,6.45,3.77l8.67,21.77c-.08.2-.15.4-.21.6-.75,2.24-1.45,5.6-2.14,10.27-2.45,16.56,4.34,24.73,5.13,25.61.75.84,1.69,1.49,2.74,1.89,1.08.41,2.03.86,2.85,1.35-5.15.28-11.39.65-17.59,1.1-8.75.64-15.76,1.31-20.83,1.99-3.25.43-5.72.87-7.56,1.34-5.03,1.29-7.67,3.9-7.86,7.76-.09,1.84.41,6.31,7,8.24,1.76.52,4.24,1,7.56,1.46,7.98,1.12,14.28,2.12,19.38,2.96,2,.33,3.85.64,5.59.93,10.54,1.77,16.91,2.84,24.71,2.84,4.16,0,8.54-.3,14.21-.98.56-.07,1.25-.16,2-.32.55-.11,1.11-.25,1.75-.42,6.34-1.64,11.82-5.38,16.28-11.12,3.01-3.83,5.54-8.55,7.52-14,.21-.55.39-1.06.56-1.58,3.78-11.12,4.56-22.6,4.08-29.05h0ZM521.27,485.73c-1.61,4.43-3.74,8.63-6.48,12.13-3.26,4.19-7.41,7.33-12.56,8.65-.44.13-.89.24-1.35.33-.47.1-.95.17-1.43.23-5.32.63-9.51.93-13.38.93-8.45,0-15.34-1.4-29.17-3.68-5.32-.87-11.68-1.88-19.54-2.98-35.43-4.97,50.86-8.57,50.86-8.57,0,0-.81-9.7-12.92-14.29,0,0-5.47-6.13-3.43-19.92,1.42-9.55,2.51-11.01,3.06-11.01.18,0,.3.16.35.24l-10.55-26.5s-5.26-7.17-12.55-7.17c-.24,0-.48,0-.73.02h-.34c-7.25,0-4.85-16.46-9.87-27.81-5.11-11.52-10.73-55.32-10.73-55.32,0,0,10.22,9.58,17.88,20.31,7.66,10.72,17.36,35.01,17.36,35.01l15.32,19.57v-19.57l7.15,28.31,4.08-12.77v18.89s1.14-.24,2.84-.24c2.55,0,6.35.55,9.42,3.31,2.12,1.91,5.91,5.77,9.68,10.61.03.03.05.06.07.09.59.74,1.17,1.51,1.75,2.3.71.99,1.42,2.01,2.11,3.05,3.77,5.72,6.87,12.15,7.32,18.16.47,6.32-.47,16.71-3.74,26.32-.15.46-.31.91-.48,1.36h0Z"/>
        </g>
        <g>
          <path class="st1" d="M60.64,581.01c-.96,0-1.9-.4-2.57-1.12-5.83-6.3-10.07-24.79-13.34-58.17-.35-3.54-.64-6.73-.88-9.35-.23-2.47-.4-4.42-.54-5.67-.33-2.92-2.63-5.88-5.3-9.3-4.62-5.92-10.36-13.29-10.72-25.71-.6-20.65,25.71-37.59,26.83-38.3.58-.37,1.23-.54,1.87-.54,1,0,1.98.42,2.66,1.23,1.13,1.33,1.12,3.28-.04,4.59-.47.54-11.73,13.74-6.8,32.01,1.7,6.3,3.22,8.32,3.8,8.91.4-.36.95-1.09,1.26-1.73.55-1.11,1.65-1.86,2.89-1.95h.26c1.14,0,2.22.55,2.88,1.5,2.56,3.7,4.41,3.7,5.2,3.7,1.8,0,4.03-.92,6.62-1.98,2.44-1,5.2-2.14,8.32-2.78,1.4-.29,2.74-.44,3.97-.44,5.33,0,8.22,2.66,10.54,4.8,1.42,1.31,2.64,2.44,4.38,3.01,2.74.89,4.79,1.92,6.3,2.89,1.78-1.71,4.61-3.07,8.94-3.07,1.44,0,3.02.15,4.69.45,6.88,1.21,9.29,3.64,11.34,6.24,1.06,1.34,1.38,1.74,3.71,1.89.29.02.57.03.85.03,6.3,0,11.51-4.27,11.56-4.31.65-.55,1.45-.83,2.27-.83.62,0,1.24.16,1.79.49.49.29,11.97,7.24,15.11,17.18.98,3.11,1.07,6.21.26,9.21-2.43,8.98-.85,11.51-.83,11.53,1.23,1.4,1.12,3.48-.22,4.78-.67.65-1.54.97-2.42.97s-1.75-.32-2.43-.95l-15.85-14.68c-.39-.36-.69-.8-.88-1.29-.04-.09-1.67-3.63-7.44-4.41-.07,0-.14-.02-.21-.03-.21-.02-.37-.04-.53-.04-1.1,0-1.66.5-3.1,2.06-1.69,1.83-4,4.34-8.3,4.34-2.47,0-5.28-.87-8.61-2.67l-1.07-.58c-5.75-3.05-8.03-3.81-11.62-3.87h-.47c-1.92,0-4.22.17-7.41.41-3.68.27-8.27.62-14.58.87-1.94.08-3.77.12-5.44.12-7.32,0-11.95-.7-14.58-2.33-2.54,3.41-5.37,9.72-4.23,20.3,2.08,19.21,9.84,30.99,9.92,31.1.58.87.75,1.97.44,2.98l-4.9,16.05c-.37,1.2-1.34,2.11-2.57,2.39-.26.06-.52.09-.78.09v-.02Z"/>
          <path d="M172.14,514.78c.98-3.66.88-7.42-.3-11.18-3.49-11.01-15.32-18.33-16.66-19.13-1.14-.68-2.4-1.02-3.64-1.02-1.6,0-3.18.56-4.46,1.67-.33.27-4.5,3.5-9.31,3.5-.21,0-.42,0-.64-.02-.38-.02-.64-.06-.8-.09-.12-.14-.27-.32-.38-.47-2.29-2.89-5.4-6.09-13.49-7.51-1.86-.33-3.65-.5-5.29-.5-3.98,0-7,.95-9.24,2.36-1.38-.71-3.01-1.39-4.92-2.01-.96-.32-1.72-.99-3.09-2.26-2.47-2.28-6.21-5.73-12.91-5.73-1.47,0-3.05.18-4.69.51-3.43.71-6.36,1.92-8.94,2.98-2.05.84-4.17,1.72-5.28,1.72-.75,0-1.97-1.68-2.32-2.19-1.33-1.91-3.46-3.11-5.76-3.11-.2,0-.4.01-.6.03-1.14.11-2.2.47-3.12,1.04-.34-.95-.72-2.14-1.11-3.61-4.48-16.6,5.94-28.66,6.05-28.78,1.63-1.85,2.12-4.34,1.46-6.58-.26-.93-.73-1.81-1.39-2.59-.31-.36-.65-.68-1.01-.96-.43-.35-.89-.63-1.38-.85-.92-.43-1.92-.65-2.93-.65-.44,0-.87.04-1.31.13-.84.15-1.67.47-2.44.96-.29.18-7.19,4.59-14.04,11.52-9.85,9.97-14.7,20.01-14.42,29.83.4,13.57,6.79,21.78,11.46,27.77,2.34,3,4.36,5.59,4.58,7.54.14,1.19.32,3.14.54,5.6.24,2.59.53,5.81.88,9.37,4.36,44.4,9.91,55.49,14.26,60.19,1.34,1.45,3.21,2.25,5.14,2.25.52,0,1.04-.06,1.56-.18,2.45-.56,4.4-2.38,5.13-4.78l4.9-16.05c.62-2.02.29-4.21-.89-5.96-.06-.08-7.36-11.27-9.33-29.51-.8-7.39.54-12.36,2.16-15.53,3.72,1.19,8.4,1.44,13.17,1.44,1.72,0,3.59-.05,5.58-.13,6.38-.25,11-.6,14.7-.87,3.12-.24,5.37-.4,7.16-.4h.41c2.81.04,4.47.5,10.03,3.45.16.09.31.17.47.26.2.11.41.22.62.33,3.84,2.06,7.19,3.07,10.24,3.07,5.83,0,9.11-3.56,10.88-5.46.26-.29.59-.65.85-.9,3.14.44,4.32,1.89,4.64,2.38.34,1.13.8,1.57,1.71,2.41l4.51,4.18,11.34,10.51c1.35,1.24,3.05,1.86,4.76,1.86s3.53-.66,4.88-1.99c2.47-2.39,2.8-6.18.91-8.95-.14-.67-.44-3.21,1.11-8.91h0ZM165.24,527.63l-11.34-10.5-4.51-4.18s-2.16-5.51-10.23-6.6c-.08-.02-.17-.03-.25-.04-.33-.04-.65-.06-.95-.06-5.47,0-5.89,6.4-11.41,6.4-1.72,0-3.93-.62-6.95-2.25-.38-.2-.74-.4-1.1-.59-6.03-3.2-8.83-4.2-13.2-4.27h-.52c-4.33,0-10.28.8-22.14,1.28-1.95.08-3.71.12-5.3.12-18.56,0-13.2-4.98-12.92-5.22-.45.26-11.53,7.04-9.37,27.06,2.21,20.42,10.49,32.68,10.49,32.68l-4.9,16.05c-6.93-7.49-10.56-37.06-12.43-56.13-.69-6.93-1.14-12.48-1.43-15.07-1.1-9.7-15.45-15.83-16-34.72-.55-18.9,25.21-35.24,25.21-35.24,0,0-13.07,14.81-7.56,35.24,2.47,9.13,5.05,11.66,7.14,11.66,2.6,0,4.45-3.86,4.45-3.86,2.7,3.9,5.33,5.21,8.08,5.21,4.55,0,9.45-3.57,15.64-4.84,1.22-.25,2.3-.37,3.27-.37,6.89,0,8.02,5.74,13.83,7.64,6.62,2.16,8.28,4.98,8.28,4.98,0,0,.41-4.98,8.05-4.98,1.18,0,2.53.12,4.08.39,11.59,2.04,7.17,7.66,15.45,8.17.36.02.71.03,1.07.03,7.76,0,13.82-5.14,13.82-5.14,0,0,10.79,6.44,13.57,15.23.72,2.28.9,4.72.22,7.24-2.9,10.72-.72,14.02-.14,14.68h0Z"/>
        </g>
        <g>
          <path class="st1" d="M84.65,356.92c-1.87-.08-3.34-1.62-3.34-3.5,0-.72.07-1.33.21-1.83.42-1.54,1.82-2.57,3.37-2.57.21,0,.42.02.63.06,1.78.32,3.02,1.95,2.86,3.75l-.08.9c-.16,1.81-1.68,3.19-3.48,3.19h-.17Z"/>
          <path class="st0" d="M84.8,353.42l.08-.9c-.03.11-.08.39-.08.9ZM84.8,353.42l.08-.9c-.03.11-.08.39-.08.9ZM88.52,346.55c-.72-.45-1.53-.76-2.41-.92-.41-.07-.83-.11-1.24-.11-.3,0-.6.02-.9.06-2.73.35-5.08,2.31-5.84,5.1-.19.7-.3,1.46-.32,2.32-.01.14-.01.28-.01.42,0,2.35,1.16,4.44,2.95,5.72.98.68,2.14,1.13,3.4,1.24.11.02.22.03.34.03.11.01.21.01.31.01.37,0,.74-.03,1.1-.1,1.7-.26,3.21-1.14,4.27-2.42.32-.37.58-.76.8-1.19.44-.8.71-1.7.8-2.67l.08-.9c.24-2.72-1.12-5.25-3.33-6.59h0Z"/>
        </g>
        <g>
          <path class="st1" d="M61.4,431.03c-.23,0-.46-.02-.7-.07-1.48-.3-2.6-1.52-2.78-3.02-.09-.75-2.1-18.6,3.98-29.66,4.72-8.59,12.87-13.52,16.62-15.44l2.79-29.71c.17-1.81,1.69-3.17,3.48-3.17h.17c.36.02.7.09,1.02.2-.14-1.88,1.25-3.55,3.13-3.74.12-.01.24-.02.36-.02,1.77,0,3.28,1.33,3.48,3.13.51,4.76,1.61,7.15,2.57,8.2,2.05-6.35,6.65-22.03,6.28-33.75-.39-12.18-8.8-13.44-9.75-13.55-1.75-.19-3.11-1.66-3.14-3.43s1.24-3.28,2.99-3.52c.11-.02,1.14-.15,2.63-.15,1.83,0,4.56.21,7.19,1.24,2.4.93,4.44,2.37,6.16,3.97l-.45-28.53c-.03-1.84,1.38-3.39,3.21-3.54.1,0,.19-.01.29-.01,1.72,0,3.2,1.26,3.46,2.99l1.53,10.33c1,6.81,2.9,13.45,5.64,19.76l1.53,3.53c14.69,13.69,13.36,17.09,12.72,18.73-.26.66-1.35,2.82-4.52,2.82-.48,0-.99-.05-1.56-.15-.3-.05-.6-.08-.89-.08-2.45,0-4.65,1.9-6.07,3.5-1.54,1.72-2.64,3.58-3.17,4.59.21,4.14.4,19.78-7,36.23-5.74,12.76-10.95,19.34-15.49,19.59l-16.63,2.8-16.03,28.17c-.63,1.11-1.8,1.77-3.04,1.77h-.01Z"/>
          <path d="M90.17,357.9c-1.06,1.28-2.57,2.16-4.27,2.42.7,2.82,1.81,6.57,3.58,11.55.36,1,.62,1.44.82,1.44.89,0,.39-8.64-.13-15.41ZM90.17,357.9c-1.06,1.28-2.57,2.16-4.27,2.42.7,2.82,1.81,6.57,3.58,11.55.36,1,.62,1.44.82,1.44.89,0,.39-8.64-.13-15.41ZM131.91,316.98c-2.27-2.45-4.57-4.7-5.89-5.95l-1.25-2.88c-2.61-6.03-4.42-12.38-5.39-18.88l-1.53-10.34c-.51-3.45-3.48-5.97-6.91-5.97-.19,0-.39.01-.58.02-3.67.3-6.49,3.4-6.43,7.09l.34,21.79c-.41-.2-.84-.38-1.28-.55-3.13-1.22-6.32-1.48-8.45-1.48-1.69,0-2.89.16-3.12.19-3.58.5-6.36,3.65-6.18,7.27.18,3.59,2.9,6.45,6.48,6.63,1.59.25,6.32,1.7,6.59,10.18.22,6.78-1.34,15.04-3.04,21.87-1.28-1.87-3.42-3.06-5.78-3.06-.24,0-.48.01-.72.04-1.97.2-3.66,1.19-4.8,2.63-.25.32-.48.67-.67,1.04-2.91.64-5.18,3.09-5.47,6.18l-.02.2-2.6,27.66c-4.52,2.57-11.86,7.72-16.37,15.93-6.51,11.83-4.63,29.75-4.39,31.76.04.39.12.76.23,1.13.4,1.4,1.24,2.63,2.36,3.53h0c.43.35.9.65,1.42.87h0c.48.23.99.4,1.53.51.46.09.93.14,1.39.14s.88-.04,1.3-.13c1.98-.37,3.74-1.58,4.78-3.41l15.21-26.73,14.81-2.49c6.04-.48,11.87-7.39,18.28-21.64,7.17-15.93,7.51-31.22,7.35-36.8.51-.87,1.27-2.03,2.24-3.1,1.3-1.47,2.59-2.34,3.46-2.34.1,0,.19,0,.29.02.76.14,1.47.21,2.16.21,4.29,0,6.83-2.61,7.79-5.05,1.93-4.93-1.16-9.64-7.16-16.09h.02ZM131.28,331.12c-.27,0-.58-.04-.95-.1-.51-.09-1.01-.13-1.49-.13-3.55,0-6.52,2.23-8.69,4.67-2.63,2.94-4.11,6.18-4.11,6.18,0,0,1.53,17.36-6.64,35.52-7.64,16.98-12.03,17.53-12.56,17.53h-.06l-18.53,3.12-.9,1.58-15.95,28.04s-2.04-17.36,3.57-27.57c5.62-10.22,16.85-14.81,16.85-14.81l2.33-24.77.33-3.47.32-3.45c0,.68.07,1.77.37,3.44.17.95.4,2.08.73,3.42.7,2.82,1.81,6.57,3.58,11.55.36,1,.62,1.44.82,1.44.89,0,.39-8.64-.13-15.41-.28-3.56-.56-6.61-.65-7.63.31,2.72.83,4.83,1.45,6.44,1.73,4.5,4.3,5.22,5.77,5.22.69,0,1.13-.16,1.13-.16,0,0,7.95-22.07,7.44-37.9s-12.91-16.92-12.91-16.92c0,0,.85-.12,2.14-.12,1.58,0,3.82.18,5.91,1,7.52,2.93,11.11,12.19,11.11,12.19l-.63-40.06,1.53,10.33c1.05,7.11,3.03,14.05,5.89,20.64l1.82,4.2s17.29,15.99,11.11,15.99h0Z"/>
        </g>
        <g>
          <path class="st1" d="M362.38,216.51c-1.19,0-2.34-.61-2.99-1.68-3.56-5.83-7.39-9.43-10.97-10.36-.86,2.63-2.49,5.08-4.75,7.13-2.86,2.6-6.34,4.15-9.28,4.15-.66,0-1.3-.08-1.89-.23-5.3-1.39-5.18-6.27-5.08-10.99.05-2,.1-4.27-.05-7.04-.39-7.47-9.66-13.19-9.75-13.25-1.31-.78-1.97-2.33-1.62-3.81.03-.11,2.61-11.53-1.61-21.29-.32-.75-.69-1.5-1.1-2.24-1.87-3.31-4.78-5.27-8.91-5.99-1.08-.19-2.25-.29-3.47-.29-3.07,0-5.42.62-5.44.63-.3.08-.61.12-.91.12-.78,0-1.56-.26-2.18-.76l-23.24-18.47c-.93-.74-1.42-1.89-1.31-3.07.11-1.18.81-2.22,1.85-2.77.47-.25,4.79-2.42,11.56-2.42,1.82,0,3.65.16,5.45.47,1.02-3.6-4.45-18.47-12.84-23.51-1.11-.67-2.12-1.01-3-1.01-3.89,0-6.92,7.43-7.78,11.03-.38,1.59-1.8,2.69-3.4,2.69-.13,0-.25,0-.38-.02-1.75-.19-3.09-1.65-3.12-3.42l-.3-17.6c0-.61.14-1.2.42-1.71.02-.13.04-.26.06-.41.48-3.21,1.42-9.5,5.8-10.91.03-.06.05-.12.08-.17,1.65-3.51,3.03-4.36,7.06-4.36h2.63c1,.01,2.19,0,3.62-.05h.12c.44,0,.88.08,1.29.25l10.75,4.28c.73.29,1.34.82,1.73,1.49,2.12,3.63,9.06,13.58,15.63,15.92,8.48,3.01,18.09,17.99,21.86,24.33,7.17-2.66,8.34-2.66,8.87-2.66,1.71,0,3.13,1.07,3.55,2.67.73,2.82-1.77,4.22-3.27,5.06-3.5,1.95-4.21,7.8-4.21,10.46,1.98,5.46,4.21,11.3,6.21,16.23-.13-1.83-.29-3.57-.44-5.01-.17-1.66.85-3.21,2.45-3.7.34-.11.69-.16,1.03-.16,1.26,0,2.46.68,3.08,1.84,2.57,4.75,4.2,16.25,5.09,24.56l1.12-6.98c.27-1.69,1.72-2.93,3.43-2.95h.02c1.7,0,3.16,1.22,3.45,2.9l4.85,27.89,3.67,21.07c.29,1.66-.64,3.28-2.21,3.88-.4.15-.82.23-1.23.23h0Z"/>
          <path d="M275.66,78.41l10.75,4.28s8.24,14.17,17.48,17.46c9.25,3.29,21.49,25.36,21.49,25.36,0,0,9.08-3.48,10.42-3.48.41,0,.09.33-1.43,1.18-6.49,3.62-5.99,14.16-5.99,14.16,0,0,10.73,29.74,12.92,29.74.15,0,.26-.14.32-.43,1-4.61-.5-19.1-.5-19.1,3.74,6.92,5.49,32.28,5.49,32.28l3.52,7.43,3.73-23.24,4.85,27.89,3.67,21.07c-6.12-10.02-11.87-12.28-15.79-12.28-.34,0-.67.02-.98.05-.23,3.32-2.03,6.19-4.28,8.22-2.25,2.04-4.93,3.25-6.94,3.25-.36,0-.71-.04-1.02-.12-3.74-.98-2-5.27-2.5-14.82-.5-9.55-11.46-16.07-11.46-16.07,0,0,2.95-12.48-1.8-23.48-.37-.87-.79-1.72-1.26-2.56-2.8-4.96-7.22-7.01-11.36-7.73-1.41-.25-2.8-.34-4.07-.34-3.64,0-6.36.75-6.36.75l-23.24-18.47s3.83-2.02,9.93-2.02c1.51,0,3.15.12,4.91.43.31.05.6.08.86.08,8.08,0-.23-23.36-11.36-30.05-1.76-1.06-3.36-1.51-4.8-1.51-7.96,0-11.19,13.72-11.19,13.72l-.3-17.6s.05.07.07.07c.49,0,.55-9.82,4.6-9.82.28,0,.5-.14.65-.44,1.77-3.51,1.27-3.81,4.6-3.81h2.63c1.08,0,2.26,0,3.74-.06M275.66,71.41h-.24c-1.47.05-2.64.06-3.5.06h-2.63c-4.96,0-7.62,1.44-9.74,5.4-1.88,1.03-3.85,2.94-5.16,6.48-.87,2.34-1.24,4.8-1.49,6.45-.36.86-.54,1.81-.53,2.79l.3,17.6c.06,3.53,2.74,6.46,6.25,6.84.25.03.5.04.75.04,3.21,0,6.06-2.21,6.81-5.4.94-3.87,3.23-7.84,4.41-8.32.14.02.54.13,1.15.5,5.2,3.12,9.43,11.54,10.77,16.58-.52-.02-1.05-.04-1.57-.04-7.61,0-12.65,2.54-13.2,2.83-2.09,1.1-3.48,3.19-3.7,5.54-.22,2.35.76,4.66,2.61,6.13l23.24,18.47c1.25,1,2.79,1.52,4.36,1.52.62,0,1.25-.08,1.86-.25h0s1.96-.5,4.5-.5c1.02,0,1.98.08,2.85.23,4.05.7,5.64,2.78,6.49,4.28.34.61.65,1.23.91,1.86,3.75,8.68,1.45,19.05,1.42,19.16-.71,3,.58,6.05,3.24,7.6,1.99,1.21,7.8,5.76,8.05,10.42.14,2.64.09,4.84.04,6.78-.06,2.74-.11,4.91.41,7.03.93,3.8,3.51,6.43,7.26,7.42.91.23,1.84.35,2.79.35,3.85,0,8.09-1.85,11.64-5.06,1.66-1.49,3.03-3.18,4.09-5,1.67,1.22,3.82,3.44,6.29,7.47,1.3,2.13,3.59,3.35,5.98,3.35.82,0,1.66-.15,2.47-.45,3.15-1.19,5-4.44,4.43-7.75l-3.67-21.07-4.85-27.89c-.58-3.35-3.5-5.8-6.9-5.8h-.05c-.97,0-1.89.21-2.73.57-.95-5.39-2.19-10.4-3.8-13.37-1.25-2.31-3.64-3.67-6.16-3.67-.69,0-1.38.1-2.06.31-.59.18-1.14.43-1.64.75-.7-1.85-1.38-3.7-2.04-5.51.1-2.53.9-5.97,2.4-6.81,1.58-.88,6.37-3.56,4.96-9-.81-3.12-3.66-5.29-6.94-5.29-.87,0-2,0-7.39,1.9-1.26-2.01-2.83-4.42-4.6-6.92-6.53-9.19-12.28-14.57-17.57-16.45-5.11-1.82-11.49-10.48-13.78-14.39-.79-1.35-2.01-2.4-3.46-2.98l-10.75-4.28c-.82-.33-1.7-.5-2.59-.5h.01Z"/>
        </g>
      </g>
      <g>
        <rect class="st4" x="57.91" y="543.5" width="431.5" height="136.62" rx="14.43" ry="14.43"/>
        <g>
          <path d="M177.33,592.66h-8.88v-6.53h8.88c1.35,0,2.44-.3,3.27-.89.83-.6,1.44-1.4,1.83-2.42.39-1.02.59-2.19.59-3.52s-.2-2.47-.59-3.59c-.39-1.12-1-2.03-1.83-2.71s-1.92-1.03-3.27-1.03h-6.47v36.09h-7.85v-42.66h14.33c2.85,0,5.29.6,7.31,1.79s3.57,2.83,4.64,4.92c1.07,2.09,1.61,4.46,1.61,7.12s-.54,5.16-1.61,7.15c-1.07,1.99-2.62,3.54-4.64,4.63s-4.46,1.64-7.31,1.64h0Z"/>
          <path d="M195.11,593.39v-2.31c0-2.5.3-4.7.89-6.59.6-1.89,1.45-3.49,2.58-4.78,1.12-1.29,2.46-2.27,4-2.93s3.26-1,5.16-1,3.68.33,5.23,1,2.89,1.64,4,2.93,1.97,2.88,2.58,4.78c.6,1.89.91,4.09.91,6.59v2.31c0,2.48-.3,4.67-.91,6.58-.61,1.9-1.46,3.5-2.58,4.79s-2.45,2.26-4,2.92-3.28.98-5.17.98-3.62-.33-5.19-.98c-1.56-.65-2.91-1.63-4.03-2.92s-1.98-2.89-2.58-4.79c-.6-1.9-.89-4.1-.89-6.58ZM202.61,591.07v2.31c0,1.54.12,2.88.37,4,.24,1.12.59,2.06,1.04,2.81s.99,1.3,1.63,1.66c.63.35,1.35.53,2.15.53s1.59-.18,2.24-.53c.65-.35,1.2-.9,1.63-1.66.43-.75.75-1.69.97-2.81.21-1.12.32-2.46.32-4v-2.31c0-1.52-.12-2.85-.37-3.97-.24-1.12-.59-2.06-1.04-2.8s-1-1.3-1.64-1.68-1.37-.57-2.17-.57-1.48.19-2.11.57-1.16.94-1.61,1.68-.8,1.67-1.04,2.8c-.24,1.12-.37,2.45-.37,3.97h0Z"/>
          <path d="M233.49,582.96v25.11h-7.5v-31.7h7.12l.38,6.59ZM241.05,576.13l-.06,7.47c-.41-.08-.85-.14-1.33-.18s-.91-.06-1.3-.06c-.92,0-1.71.16-2.39.47s-1.23.76-1.67,1.35-.78,1.3-1.01,2.15-.38,1.81-.44,2.89l-1.52-.26c0-2.03.16-3.91.48-5.62s.8-3.22,1.44-4.5c.63-1.28,1.42-2.28,2.36-2.99s2.01-1.07,3.22-1.07c.35,0,.75.03,1.2.1.45.07.79.15,1.03.25h0Z"/>
          <path d="M260.24,576.37v5.71h-15.88v-5.71h15.88ZM248.37,568.57h7.5v30.23c0,.92.09,1.63.28,2.12.19.5.47.83.85,1.01s.84.26,1.39.26c.41,0,.8-.03,1.16-.09.36-.06.63-.12.81-.18v5.95c-.57.23-1.19.42-1.88.56-.68.14-1.51.21-2.49.21-1.52,0-2.85-.3-3.98-.89-1.13-.6-2.02-1.57-2.67-2.93s-.97-3.14-.97-5.35v-30.91h0Z"/>
          <path d="M279.78,576.37v5.71h-16.49v-5.71h16.49ZM274.74,608.07h-7.53v-34.57c0-2.4.41-4.42,1.22-6.05s1.97-2.87,3.47-3.72,3.27-1.27,5.3-1.27c.66,0,1.29.05,1.88.15s1.17.24,1.76.44l-.15,6.01c-.25-.08-.57-.14-.95-.18s-.76-.06-1.13-.06c-.82,0-1.52.18-2.11.54s-1.03.89-1.32,1.58-.44,1.55-.44,2.56v34.57h0Z"/>
          <path d="M283.73,593.39v-2.31c0-2.5.3-4.7.89-6.59.6-1.89,1.45-3.49,2.58-4.78,1.12-1.29,2.46-2.27,4-2.93s3.26-1,5.16-1,3.68.33,5.23,1,2.89,1.64,4,2.93,1.97,2.88,2.58,4.78c.6,1.89.91,4.09.91,6.59v2.31c0,2.48-.3,4.67-.91,6.58-.61,1.9-1.46,3.5-2.58,4.79s-2.45,2.26-4,2.92-3.28.98-5.17.98-3.62-.33-5.19-.98c-1.56-.65-2.91-1.63-4.03-2.92s-1.98-2.89-2.58-4.79c-.6-1.9-.89-4.1-.89-6.58ZM291.23,591.07v2.31c0,1.54.12,2.88.37,4,.24,1.12.59,2.06,1.04,2.81s.99,1.3,1.63,1.66c.63.35,1.35.53,2.15.53s1.59-.18,2.24-.53c.65-.35,1.2-.9,1.63-1.66.43-.75.75-1.69.97-2.81.21-1.12.32-2.46.32-4v-2.31c0-1.52-.12-2.85-.37-3.97-.24-1.12-.59-2.06-1.04-2.8s-1-1.3-1.64-1.68-1.37-.57-2.17-.57-1.48.19-2.11.57c-.63.38-1.16.94-1.61,1.68-.45.74-.8,1.67-1.04,2.8-.24,1.12-.37,2.45-.37,3.97Z"/>
          <path d="M322.52,563.07v45h-7.53v-45h7.53Z"/>
          <path d="M329.41,568.11c0-1.19.37-2.17,1.11-2.94s1.76-1.16,3.05-1.16,2.29.39,3.02,1.16c.72.77,1.08,1.75,1.08,2.94s-.36,2.12-1.08,2.92c-.72.79-1.73,1.19-3.02,1.19s-2.3-.4-3.05-1.19c-.74-.79-1.11-1.76-1.11-2.92ZM337.32,576.37v31.7h-7.53v-31.7h7.53Z"/>
          <path d="M343.24,593.39v-2.31c0-2.5.3-4.7.89-6.59.6-1.89,1.45-3.49,2.58-4.78,1.12-1.29,2.46-2.27,4-2.93s3.26-1,5.16-1,3.68.33,5.23,1,2.89,1.64,4,2.93,1.97,2.88,2.58,4.78c.6,1.89.91,4.09.91,6.59v2.31c0,2.48-.3,4.67-.91,6.58-.61,1.9-1.46,3.5-2.58,4.79s-2.45,2.26-4,2.92-3.28.98-5.17.98-3.62-.33-5.19-.98c-1.56-.65-2.91-1.63-4.03-2.92s-1.98-2.89-2.58-4.79c-.6-1.9-.89-4.1-.89-6.58ZM350.74,591.07v2.31c0,1.54.12,2.88.37,4,.24,1.12.59,2.06,1.04,2.81s.99,1.3,1.63,1.66c.63.35,1.35.53,2.15.53s1.59-.18,2.24-.53c.65-.35,1.2-.9,1.63-1.66.43-.75.75-1.69.97-2.81.21-1.12.32-2.46.32-4v-2.31c0-1.52-.12-2.85-.37-3.97s-.59-2.06-1.04-2.8-1-1.3-1.64-1.68-1.37-.57-2.17-.57-1.48.19-2.11.57c-.63.38-1.16.94-1.61,1.68-.45.74-.8,1.67-1.04,2.8-.25,1.12-.37,2.45-.37,3.97Z"/>
        </g>
        <g>
          <path d="M105.68,613.02h6.28v23.55c0,2.61-.48,4.73-1.45,6.35s-2.29,2.81-3.95,3.56-3.54,1.12-5.64,1.12-4.05-.38-5.73-1.12-2.99-1.94-3.93-3.56-1.41-3.74-1.41-6.35v-23.55h6.26v23.55c0,1.56.19,2.77.57,3.61s.93,1.42,1.63,1.73,1.57.47,2.6.47,1.9-.16,2.6-.47,1.24-.89,1.61-1.73.55-2.05.55-3.61v-23.55h.01Z"/>
          <path d="M123.04,627.19v19.95h-6.02v-25.36h5.62s.4,5.41.4,5.41ZM122.06,633.57l-1.76.02c-.02-1.86.18-3.54.57-5.05s.97-2.8,1.72-3.88,1.64-1.91,2.68-2.48,2.21-.87,3.5-.87c1.02,0,1.93.17,2.75.52s1.53.89,2.12,1.64,1.05,1.73,1.38,2.95.49,2.72.49,4.5v16.22h-6.02v-16.29c0-1.14-.12-2.04-.36-2.68s-.59-1.11-1.05-1.38-1.05-.41-1.77-.41c-.67,0-1.27.19-1.8.56s-.98.89-1.35,1.55-.65,1.42-.84,2.29-.29,1.8-.27,2.8h.01Z"/>
          <path d="M139.78,635.44v-1.85c0-2.08.18-3.89.54-5.43s.9-2.82,1.63-3.83,1.6-1.77,2.62-2.27,2.19-.75,3.5-.75c1.23,0,2.31.29,3.22.87s1.7,1.4,2.34,2.47,1.16,2.34,1.55,3.8.65,3.07.81,4.82v2.6c-.19,1.7-.47,3.27-.84,4.69s-.89,2.66-1.55,3.73-1.44,1.88-2.36,2.46-1.99.87-3.22.87c-1.3,0-2.46-.26-3.48-.79s-1.89-1.3-2.61-2.32-1.26-2.29-1.62-3.81-.54-3.27-.54-5.25h0ZM145.8,633.59v1.85c0,1.22.07,2.27.21,3.16s.37,1.62.68,2.2.72,1,1.22,1.28,1.12.41,1.85.41c.94,0,1.7-.23,2.29-.7s1.04-1.11,1.35-1.93.52-1.75.61-2.8v-4.95c-.05-.84-.17-1.61-.38-2.31s-.48-1.3-.82-1.8-.77-.91-1.27-1.2-1.09-.43-1.76-.43c-.73,0-1.36.14-1.86.42s-.91.72-1.22,1.31-.53,1.34-.68,2.25-.22,1.98-.22,3.23h0ZM153.18,641.7v-30.56h6.02v36l-5.46.02-.56-5.46Z"/>
          <path d="M174.4,647.61c-1.69,0-3.18-.26-4.49-.77s-2.41-1.27-3.32-2.25-1.6-2.2-2.07-3.63-.71-3.09-.71-4.95v-2.27c0-2.09.24-3.92.73-5.47s1.16-2.85,2.03-3.88,1.91-1.8,3.14-2.31,2.58-.76,4.07-.76c1.59,0,2.99.26,4.18.79s2.18,1.3,2.96,2.33,1.36,2.31,1.75,3.83.57,3.29.57,5.29v2.88h-16.73v-4.38h10.83v-.59c-.03-1.09-.16-2.02-.39-2.79s-.6-1.35-1.11-1.75-1.21-.6-2.09-.6c-.69,0-1.28.14-1.77.41s-.89.7-1.21,1.28-.54,1.34-.69,2.27-.22,2.09-.22,3.45v2.27c0,1.2.11,2.22.32,3.06s.53,1.52.95,2.04.94.9,1.55,1.14,1.32.35,2.13.35c1.22,0,2.29-.22,3.21-.66s1.72-1.04,2.39-1.8l2.51,3.68c-.45.61-1.07,1.21-1.85,1.79s-1.72,1.07-2.81,1.44-2.38.56-3.84.56h-.02Z"/>
          <path d="M193.33,627.05v20.09h-6v-25.36h5.7l.3,5.27h0ZM199.38,621.59l-.05,5.98c-.33-.06-.68-.11-1.07-.14s-.73-.05-1.04-.05c-.73,0-1.37.12-1.91.38s-.98.61-1.34,1.08-.62,1.04-.81,1.72-.3,1.45-.35,2.31l-1.22-.21c0-1.62.13-3.12.39-4.5s.64-2.57,1.15-3.6,1.14-1.82,1.89-2.39,1.61-.86,2.58-.86c.28,0,.6.03.96.08s.63.12.82.2Z"/>
          <path d="M223.08,642.59c.66,0,1.23-.13,1.72-.4s.88-.7,1.16-1.31.44-1.39.47-2.34h5.62c-.02,1.86-.42,3.47-1.22,4.83s-1.86,2.41-3.19,3.14-2.82,1.1-4.48,1.1-3.18-.27-4.44-.81-2.29-1.33-3.11-2.38-1.42-2.32-1.83-3.81-.61-3.2-.61-5.12v-2.09c0-1.91.2-3.61.61-5.1s1.02-2.76,1.83-3.81,1.85-1.84,3.11-2.38,2.73-.81,4.42-.81c1.78,0,3.34.38,4.66,1.12s2.36,1.85,3.11,3.29,1.12,3.22,1.14,5.33h-5.62c-.03-1.03-.17-1.89-.42-2.59s-.62-1.23-1.1-1.59-1.11-.55-1.88-.55c-.81,0-1.47.16-1.98.48s-.89.79-1.16,1.39-.45,1.35-.54,2.23-.14,1.87-.14,2.98v2.09c0,1.17.05,2.19.14,3.06s.27,1.61.53,2.21.64,1.07,1.16,1.37,1.2.46,2.04.46h0Z"/>
          <path d="M235.31,635.4v-1.85c0-2,.24-3.76.71-5.27s1.16-2.79,2.06-3.82,1.96-1.81,3.2-2.34,2.61-.8,4.12-.8,2.94.27,4.18.8,2.31,1.31,3.2,2.34,1.58,2.3,2.06,3.82.73,3.27.73,5.27v1.85c0,1.98-.24,3.74-.73,5.26s-1.17,2.8-2.06,3.83-1.96,1.81-3.2,2.33-2.62.79-4.14.79-2.9-.26-4.15-.79-2.32-1.3-3.22-2.33-1.59-2.31-2.06-3.83-.71-3.28-.71-5.26h.01ZM241.31,633.55v1.85c0,1.23.1,2.3.29,3.2s.47,1.65.83,2.25.79,1.04,1.3,1.32,1.08.42,1.72.42,1.27-.14,1.79-.42.96-.72,1.3-1.32.6-1.35.77-2.25.26-1.96.26-3.2v-1.85c0-1.22-.1-2.28-.29-3.18s-.47-1.64-.83-2.24-.8-1.04-1.31-1.35-1.09-.46-1.73-.46-1.19.15-1.69.46-.93.75-1.29,1.35-.64,1.34-.83,2.24-.29,1.96-.29,3.18h0Z"/>
          <path d="M265.92,627.19v19.95h-6.02v-25.36h5.62l.4,5.41ZM264.93,633.57l-1.76.02c-.02-1.86.18-3.54.57-5.05s.97-2.8,1.72-3.88,1.64-1.91,2.68-2.48,2.21-.87,3.5-.87c1.02,0,1.93.17,2.75.52s1.53.89,2.12,1.64,1.05,1.73,1.38,2.95.49,2.72.49,4.5v16.22h-6.02v-16.29c0-1.14-.12-2.04-.36-2.68s-.59-1.11-1.05-1.38-1.05-.41-1.77-.41c-.67,0-1.27.19-1.8.56s-.98.89-1.35,1.55-.65,1.42-.84,2.29-.29,1.8-.27,2.8h0Z"/>
          <path d="M295.03,640.37c0-.48-.15-.91-.46-1.29s-.78-.75-1.43-1.14-1.53-.82-2.64-1.3c-1.16-.47-2.18-.95-3.08-1.44s-1.66-1.04-2.29-1.63-1.09-1.28-1.41-2.05-.47-1.66-.47-2.66c0-1.06.2-2.05.59-2.95s.96-1.7,1.7-2.38,1.64-1.22,2.71-1.62,2.26-.6,3.59-.6c1.86,0,3.46.33,4.79,1s2.36,1.59,3.07,2.78,1.07,2.55,1.07,4.1h-6c0-.61-.1-1.15-.3-1.63s-.52-.86-.96-1.14-1-.42-1.69-.42c-.58,0-1.07.11-1.48.34s-.72.53-.94.91-.33.82-.33,1.3c0,.36.07.68.21.97s.37.56.69.82.76.53,1.32.81,1.26.59,2.09.94c1.7.62,3.11,1.29,4.21,2s1.93,1.55,2.47,2.51.82,2.13.82,3.5c0,1.12-.21,2.14-.62,3.06s-1.02,1.7-1.82,2.37-1.75,1.18-2.86,1.54-2.35.54-3.73.54c-2.02,0-3.71-.4-5.1-1.21s-2.43-1.84-3.14-3.09-1.07-2.58-1.07-3.97h5.77c.03.94.21,1.66.55,2.18s.78.88,1.32,1.08,1.13.3,1.76.3c.69,0,1.26-.1,1.71-.29s.79-.48,1.02-.87.34-.84.34-1.37h.02Z"/>
          <path d="M316,621.78v4.57h-12.7v-4.57h12.7ZM306.51,615.55h6v24.19c0,.73.07,1.3.22,1.7s.38.67.68.81.68.21,1.11.21c.33,0,.64-.02.93-.07s.5-.09.64-.14v4.76c-.45.19-.95.34-1.5.45s-1.21.16-1.99.16c-1.22,0-2.28-.24-3.19-.71s-1.62-1.26-2.13-2.34-.77-2.51-.77-4.28v-24.73h0Z"/>
          <path d="M325.97,627.05v20.09h-6v-25.36h5.7l.3,5.27h0ZM332.01,621.59l-.05,5.98c-.33-.06-.68-.11-1.07-.14s-.73-.05-1.04-.05c-.73,0-1.37.12-1.91.38s-.98.61-1.34,1.08-.62,1.04-.81,1.72-.3,1.45-.35,2.31l-1.22-.21c0-1.62.13-3.12.39-4.5s.64-2.57,1.15-3.6,1.14-1.82,1.89-2.39,1.61-.86,2.58-.86c.28,0,.6.03.96.08s.63.12.82.2Z"/>
          <path d="M348.7,635.82l1.76-.05c0,1.72-.16,3.3-.47,4.73s-.8,2.69-1.45,3.75-1.49,1.89-2.5,2.47-2.2.88-3.57.88c-1.05,0-2-.18-2.86-.53s-1.6-.91-2.23-1.66-1.11-1.73-1.45-2.93-.52-2.63-.52-4.3v-16.41h6.02v16.45c0,.8.07,1.46.2,2s.32.98.57,1.32.54.59.87.73.68.21,1.05.21c1.14,0,2.04-.29,2.71-.88s1.14-1.38,1.43-2.38.43-2.14.43-3.42v.02ZM347.9,641.09v-19.31h6.05v25.36h-5.67l-.38-6.05h0Z"/>
          <path d="M368.15,642.59c.66,0,1.23-.13,1.72-.4s.88-.7,1.16-1.31.44-1.39.47-2.34h5.62c-.02,1.86-.42,3.47-1.22,4.83s-1.86,2.41-3.19,3.14-2.82,1.1-4.48,1.1-3.18-.27-4.44-.81-2.29-1.33-3.11-2.38-1.42-2.32-1.83-3.81-.61-3.2-.61-5.12v-2.09c0-1.91.2-3.61.61-5.1s1.02-2.76,1.83-3.81,1.85-1.84,3.11-2.38,2.73-.81,4.42-.81c1.78,0,3.34.38,4.66,1.12s2.36,1.85,3.11,3.29,1.12,3.22,1.14,5.33h-5.62c-.03-1.03-.17-1.89-.42-2.59s-.62-1.23-1.1-1.59-1.11-.55-1.88-.55c-.81,0-1.47.16-1.98.48s-.89.79-1.16,1.39-.45,1.35-.54,2.23-.14,1.87-.14,2.98v2.09c0,1.17.05,2.19.14,3.06s.27,1.61.53,2.21.64,1.07,1.16,1.37,1.2.46,2.04.46h0Z"/>
          <path d="M391.8,621.78v4.57h-12.7v-4.57h12.7ZM382.31,615.55h6v24.19c0,.73.07,1.3.22,1.7s.38.67.68.81.68.21,1.11.21c.33,0,.64-.02.93-.07s.5-.09.64-.14v4.76c-.45.19-.95.34-1.5.45s-1.21.16-1.99.16c-1.22,0-2.28-.24-3.19-.71s-1.62-1.26-2.13-2.34-.77-2.51-.77-4.28v-24.73h0Z"/>
          <path d="M395.76,615.17c0-.95.3-1.74.89-2.36s1.41-.93,2.44-.93,1.84.31,2.41.93.87,1.4.87,2.36-.29,1.7-.87,2.33-1.38.95-2.41.95-1.84-.32-2.44-.95-.89-1.41-.89-2.33ZM402.09,621.78v25.36h-6.02v-25.36h6.02Z"/>
          <path d="M406.83,635.4v-1.85c0-2,.24-3.76.71-5.27s1.16-2.79,2.06-3.82,1.96-1.81,3.2-2.34,2.61-.8,4.12-.8,2.94.27,4.18.8,2.31,1.31,3.2,2.34,1.58,2.3,2.06,3.82.73,3.27.73,5.27v1.85c0,1.98-.24,3.74-.73,5.26s-1.17,2.8-2.06,3.83-1.96,1.81-3.2,2.33-2.62.79-4.14.79-2.9-.26-4.15-.79-2.32-1.3-3.22-2.33-1.59-2.31-2.06-3.83-.71-3.28-.71-5.26h.01ZM412.83,633.55v1.85c0,1.23.1,2.3.29,3.2s.47,1.65.83,2.25.79,1.04,1.3,1.32,1.08.42,1.72.42,1.27-.14,1.79-.42.96-.72,1.3-1.32.6-1.35.77-2.25.26-1.96.26-3.2v-1.85c0-1.22-.1-2.28-.29-3.18s-.47-1.64-.83-2.24-.8-1.04-1.31-1.35-1.09-.46-1.73-.46-1.19.15-1.69.46-.93.75-1.29,1.35-.64,1.34-.83,2.24-.29,1.96-.29,3.18h0Z"/>
          <path d="M437.44,627.19v19.95h-6.02v-25.36h5.62l.4,5.41ZM436.45,633.57l-1.76.02c-.02-1.86.18-3.54.57-5.05s.97-2.8,1.72-3.88,1.64-1.91,2.68-2.48,2.21-.87,3.5-.87c1.02,0,1.93.17,2.75.52s1.53.89,2.12,1.64,1.05,1.73,1.38,2.95.49,2.72.49,4.5v16.22h-6.02v-16.29c0-1.14-.12-2.04-.36-2.68s-.59-1.11-1.05-1.38-1.05-.41-1.77-.41c-.67,0-1.27.19-1.8.56s-.98.89-1.35,1.55-.65,1.42-.84,2.29-.29,1.8-.27,2.8h0Z"/>
        </g>
        <path d="M474.97,553.5c2.44,0,4.43,1.99,4.43,4.43v107.75c0,2.44-1.99,4.43-4.43,4.43H72.34c-2.44,0-4.43-1.99-4.43-4.43v-107.75c0-2.44,1.99-4.43,4.43-4.43h402.63M474.97,543.5H72.34c-7.97,0-14.43,6.46-14.43,14.43v107.75c0,7.97,6.46,14.43,14.43,14.43h402.63c7.97,0,14.43-6.46,14.43-14.43v-107.75c0-7.97-6.46-14.43-14.43-14.43h0Z"/>
      </g>
      <path d="M65.27,491.9c-.02.07-.09.31-.21.69.02-.38.16-.62.21-.69Z"/>
      <path d="M107,499.76c-1.32,1.27-3.14,3.58-1.7,5.78-4.38-.07-10.32.78-22.66,1.28-24.81,1-18.52-4.84-18.22-5.1-.45.26-11.53,7.04-9.37,27.06,2.21,20.42,10.49,32.68,10.49,32.68l-4.9,16.05c-6.93-7.49-10.56-37.06-12.43-56.13,9.22-6.54,15.6-24.95,16.85-28.79-.11,1.46,1.36,5.04,15.54,9.51,14.75,4.65,23.43-.14,26.4-2.34Z"/>
      <path d="M107,499.76c.57-.54,1.04-.89,1.15-.96-.07.07-.46.45-1.15.96Z"/>
      <path d="M135.49,500.56l3.67,5.79c-.08-.02-.17-.03-.25-.04-8.28-1.02-6.07,11.23-19.31,4.09-.38-.2-.74-.4-1.1-.59,11.06-.32,16.99-9.25,16.99-9.25Z"/>
      <path d="M165.38,512.95c-2.9,10.72-.72,14.02-.14,14.68l-11.34-10.5c5.24-3.05,8.81-7.19,11.26-11.42.72,2.28.9,4.72.22,7.24Z"/>
      <path d="M521.75,484.37s.02.08.03.11c-.17.42-.34.84-.51,1.25-1.74,4.19-3.86,8.14-6.4,11.49-3.73,4.91-8.36,8.51-13.99,9.62-.47.1-.95.17-1.43.23-16.97,2.02-22.4.57-42.55-2.75,27.7-3,46.57,3.53,55.7-21.37,1.19-3.25,2.54-7.71,3.4-13.42.49-3.2.82-6.8.88-10.8.13-6.9-.56-14.99-2.64-24.28v-.02s.05.07.07.11c.5.75,1.09,1.52,1.75,2.3.71.99,1.42,2.01,2.11,3.05,3.77,5.72,6.87,12.15,7.32,18.16.47,6.32-.47,16.71-3.74,26.32h0Z"/>
      <path d="M506.96,441.45c-.63-.33-1-.4-1-.4,0,0,.14-.78,1,.4Z"/>
      <path d="M521.78,484.48c-.17.42-.34.84-.51,1.25-1.61,4.43-3.74,8.63-6.48,12.13.03-.21.06-.42.08-.64.94-7.36,2.01-17.79,1.13-27.69-.39-4.54-1.2-8.96-2.62-12.93-3.59-10.07-5.46-13.84-6.42-15.15,2,1.07,6.59,4.79,9.92,17.28.66,2.48,1.28,5.31,1.81,8.54,1.13,6.83,2.16,12.49,3.06,17.1.02.04.02.08.03.11h0Z"/>
      <path d="M460.71,392.32c-.95,2.57-11.73,11.07-3.98,6.58,5.97-3.22,12.91-9.06,11.79-16.73-1.05-7.84-6.67-15.32-9.49-18.91-.36-.4-.42-.23-.23.4,1.02,2.97,2.45,6.28,3.12,9.43,1.33,6.13,1.49,13.23-1.03,18.92l-.18.32h0Z"/>
      <path d="M362.38,213.01c-6.65-10.89-12.86-12.61-16.77-12.23-1.43-2.03-2.92-4.15-3.96-5.71,1.57.93,4.69,1.68,10.87,1.24,3.13-.22,5.08-1.89,6.19-4.37l3.67,21.07h0Z"/>
      <path d="M320.86,150.34c-.38,2.82-1.6,5.29-3.25,7.42-.8,1.02-1.69,1.97-2.64,2.83-.93.86-1.92,1.64-2.91,2.34-.44-1.47-1.03-2.92-1.81-4.29-.63-1.12-2.54-4.51-9.33-4.51-1.27,0-2.4.13-3.2.25-.81.12-1.3.25-1.3.25-.61.17-1.24.25-1.86.25-.44,0-.88-.04-1.31-.13l-2.82-4.42c.53,0,1.06,0,1.59,0,4.71-.11,9.13-1.11,12.97-2.86,5.12-2.32,9.19-5.99,11.48-10.67,2.02-4.13,2.26-8.23,2.05-11.24,0,0,3.98,12.57,2.34,24.78h0Z"/>
    </g>
  </g>
</svg>